<svg xmlns="http://www.w3.org/2000/svg" width="949.73285" height="151.93354" viewBox="0 0 949.73285 151.93354">
  <g id="Layer_2" data-name="Layer 2">
    <g id="Layer_1-2" data-name="Layer 1">
      <g>
        <g>
          <path d="M254.66609,47.25308h-31.7784V36.92814h73.98207V47.25308h-31.7784v68.86885H254.66609Z" fill="#fff"/>
          <path d="M293.16208,63.99463H302.886v9.92363c3.4085-7.01677,10.5256-10.52561,20.85055-10.52561v9.52321c-12.32974,0-20.85055,4.41091-20.85055,13.83379v29.37228h-9.72388Z" fill="#fff"/>
          <path d="M328.54965,102.28814c0-9.22222,7.91974-14.83618,23.25758-16.54089l12.53039-1.4028V81.33726c.10034-6.4157-3.60917-10.22553-11.92932-10.22553-7.91975,0-12.431,4.00958-12.431,10.52561h-9.62263c0-12.12908,8.11949-19.24709,22.25336-19.24709,14.33635,0,21.95419,7.01768,21.95419,18.947v21.75262c0,4.31057.80265,5.81462,4.91256,5.4133l-.20066,7.21743c-9.52413,2.7071-13.73437-1.20215-14.33544-9.42288-2.90686,7.21742-9.32255,11.42767-18.74635,11.42767C334.26394,117.7254,328.54965,110.20789,328.54965,102.28814ZM364.137,92.36361,354.71317,93.366c-10.62594,1.20306-16.03833,3.80984-16.03833,8.72148,0,3.60917,2.50645,7.61875,9.723,7.61875C357.11928,109.70623,363.836,102.08748,364.137,92.36361Z" fill="#fff"/>
          <path d="M389.60091,63.99463h10.22552v8.92123a20.28215,20.28215,0,0,1,18.345-10.52561c12.63073,0,19.14676,7.71909,19.14676,22.6556v31.07608h-10.325V85.34684c0-8.72148-4.21024-14.23511-11.8299-14.23511-9.22131,0-15.33693,8.1195-15.33693,19.24709v25.76311H389.60091Z" fill="#fff"/>
          <path d="M449.24845,99.882h9.723c.40132,6.4157,5.71429,10.1252,14.03445,10.1252,7.41809,0,11.72866-3.50884,11.72866-8.12041,0-13.2318-33.98294-1.50314-33.98294-23.15634,0-9.62354,8.52082-16.34023,22.35461-16.34023,12.63164,0,20.95179,7.01768,21.75353,18.14436h-9.72388c-.301-6.516-5.11322-10.42527-12.93172-10.42527-7.118,0-11.32825,3.50884-11.32825,8.21982,0,12.73106,34.08326,1.20306,34.08326,23.45733,0,9.62354-8.52081,15.93891-22.35369,15.93891C458.47067,117.7254,449.54853,110.90929,449.24845,99.882Z" fill="#fff"/>
          <path d="M505.48657,48.85746A7.21032,7.21032,0,0,1,512.80524,41.64a7.21813,7.21813,0,1,1-7.31867,7.21743Zm2.30578,15.13717h10.12428v52.1273H507.79235Z" fill="#fff"/>
          <path d="M539.76958,102.08748V73.01619H528.6429V63.99463h11.12668V49.96019h10.22553V63.99463h14.93651v9.02156H549.99511V98.27856c0,8.62115.40041,9.72388,12.32974,8.8209v8.92214C547.38833,117.42532,539.46859,116.82333,539.76958,102.08748Z" fill="#fff"/>
          <path d="M574.35633,48.85746A7.21011,7.21011,0,0,1,581.67409,41.64a7.21812,7.21812,0,1,1-7.31776,7.21743Zm2.30578,15.13717h10.1252v52.1273h-10.1252Z" fill="#fff"/>
          <path d="M599.51745,89.9575c0-16.13866,11.02635-27.56725,26.46452-27.56725,15.53849,0,26.56576,11.42859,26.56576,27.56725,0,16.23989-11.02727,27.7679-26.56576,27.7679C610.5438,117.7254,599.51745,106.19739,599.51745,89.9575Zm42.70442,0c0-11.02635-6.71578-18.84577-16.2399-18.84577-9.42288,0-16.13866,7.81942-16.13866,18.84577,0,11.12759,6.71578,19.04733,16.13866,19.04733C635.50609,109.00483,642.22187,101.08509,642.22187,89.9575Z" fill="#fff"/>
          <path d="M664.37763,63.99463h10.22462v8.92123a20.28358,20.28358,0,0,1,18.34593-10.52561c12.63073,0,19.14676,7.71909,19.14676,22.6556v31.07608H701.76908V85.34684c0-8.72148-4.21025-14.23511-11.829-14.23511-9.22222,0-15.33783,8.1195-15.33783,19.24709v25.76311H664.37763Z" fill="#fff"/>
          <path d="M724.62533,108.40285l52.82961-61.55018H724.02426V36.92814h69.46992v5.91495l-53.63134,63.3543h52.32795v9.92454H724.62533Z" fill="#fff"/>
          <path d="M799.46294,89.9575c0-16.13866,11.02726-27.56725,26.46542-27.56725,12.73106,0,23.45733,9.52322,23.45733,26.86584v4.00958H809.98854c.70232,9.52322,6.31537,16.03924,15.93982,16.03924,7.01677,0,11.72775-4.10991,12.73106-8.32015H848.884c-1.60347,9.22313-10.62594,16.74064-22.95568,16.74064C810.4902,117.7254,799.46294,106.19739,799.46294,89.9575Zm39.69814-4.31058c-.40133-8.52082-5.81554-14.53519-13.53371-14.53519-8.92214,0-14.33453,5.81463-15.63883,14.53519Z" fill="#fff"/>
          <path d="M862.31741,63.99463h9.72479v9.92363c3.40759-7.01677,10.5256-10.52561,20.85055-10.52561v9.52321c-12.32974,0-20.85055,4.41091-20.85055,13.83379v29.37228h-9.72479Z" fill="#fff"/>
          <path d="M896.70258,89.9575c0-16.13866,11.02635-27.56725,26.46452-27.56725,15.53849,0,26.56575,11.42859,26.56575,27.56725,0,16.23989-11.02726,27.7679-26.56575,27.7679C907.72893,117.7254,896.70258,106.19739,896.70258,89.9575Zm42.70442,0c0-11.02635-6.71578-18.84577-16.2399-18.84577-9.42288,0-16.13866,7.81942-16.13866,18.84577,0,11.12759,6.71578,19.04733,16.13866,19.04733C932.69122,109.00483,939.407,101.08509,939.407,89.9575Z" fill="#fff"/>
        </g>
        <g>
          <rect x="86.34506" y="8.1393" width="2.69823" height="2.71308" fill="#fff"/>
          <rect x="72.85369" y="2.71313" width="2.69823" height="2.71308" fill="#fff"/>
          <rect x="70.15527" y="146.50737" width="2.69843" height="2.71308" fill="#fff"/>
          <polygon points="70.155 10.852 72.854 10.852 72.854 8.139 72.854 5.426 70.155 5.426 70.155 8.139 67.457 8.139 64.759 8.139 64.759 10.852 67.457 10.852 70.155 10.852" fill="#fff"/>
          <rect x="53.96566" y="32.5572" width="2.69823" height="2.71308" fill="#fff"/>
          <rect x="64.7588" y="146.50737" width="2.69823" height="2.71308" fill="#fff"/>
          <rect x="62.06056" y="10.85239" width="2.69823" height="2.71313" fill="#fff"/>
          <rect x="62.06056" y="141.08115" width="2.69823" height="2.71308" fill="#fff"/>
          <rect x="59.36233" y="5.42622" width="2.69823" height="2.71308" fill="#fff"/>
          <polygon points="59.362 10.852 56.664 10.852 53.966 10.852 53.966 13.566 56.664 13.566 56.664 16.279 59.362 16.279 62.061 16.279 62.061 13.566 59.362 13.566 59.362 10.852" fill="#fff"/>
          <rect x="53.96566" y="18.99169" width="2.69823" height="2.71313" fill="#fff"/>
          <rect x="59.36233" y="138.36807" width="2.69823" height="2.71308" fill="#fff"/>
          <rect x="59.36233" y="143.79424" width="2.69823" height="2.71313" fill="#fff"/>
          <polygon points="51.267 16.279 51.267 18.992 53.966 18.992 53.966 16.279 53.966 13.566 51.267 13.566 51.267 16.279" fill="#fff"/>
          <rect x="51.26743" y="21.70482" width="2.69823" height="2.71308" fill="#fff"/>
          <polygon points="53.966 29.844 53.966 27.131 51.267 27.131 48.569 27.131 48.569 29.844 51.267 29.844 53.966 29.844" fill="#fff"/>
          <rect x="51.26743" y="132.94185" width="2.69823" height="2.71308" fill="#fff"/>
          <rect x="51.26743" y="138.36807" width="2.69823" height="2.71308" fill="#fff"/>
          <rect x="51.26743" y="143.79424" width="2.69823" height="2.71313" fill="#fff"/>
          <rect x="48.56919" y="5.42622" width="2.69823" height="2.71308" fill="#fff"/>
          <rect x="40.4743" y="24.4179" width="2.69823" height="2.71308" fill="#fff"/>
          <rect x="45.87077" y="10.85239" width="2.69843" height="2.71313" fill="#fff"/>
          <polygon points="45.871 21.705 45.871 24.418 48.569 24.418 48.569 21.705 48.569 18.992 45.871 18.992 45.871 21.705" fill="#fff"/>
          <rect x="32.3794" y="70.54058" width="2.69843" height="2.71308" fill="#fff"/>
          <polygon points="45.871 138.368 45.871 141.081 48.569 141.081 48.569 138.368 48.569 135.655 45.871 135.655 45.871 138.368" fill="#fff"/>
          <rect x="43.17253" y="13.56552" width="2.69823" height="2.71308" fill="#fff"/>
          <rect x="43.17253" y="111.23708" width="2.69823" height="2.71308" fill="#fff"/>
          <rect x="40.4743" y="8.1393" width="2.69823" height="2.71308" fill="#fff"/>
          <rect x="40.4743" y="32.5572" width="2.69823" height="2.71308" fill="#fff"/>
          <rect x="45.87077" y="29.84412" width="2.69843" height="2.71308" fill="#fff"/>
          <polygon points="43.173 43.41 43.173 40.697 43.173 37.983 40.474 37.983 40.474 40.697 37.776 40.697 37.776 43.41 40.474 43.41 43.173 43.41" fill="#fff"/>
          <polygon points="43.173 46.123 40.474 46.123 40.474 48.836 40.474 51.549 43.173 51.549 43.173 48.836 43.173 46.123" fill="#fff"/>
          <polygon points="37.776 51.549 37.776 48.836 37.776 46.123 35.078 46.123 35.078 48.836 35.078 51.549 35.078 54.262 37.776 54.262 37.776 51.549" fill="#fff"/>
          <rect x="18.88803" y="67.82749" width="2.69823" height="2.71308" fill="#fff"/>
          <rect x="5.39666" y="65.11441" width="2.69823" height="2.71308" fill="#fff"/>
          <rect y="56.97511" width="2.69823" height="2.71308" fill="#fff"/>
          <polygon points="43.173 86.819 40.474 86.819 40.474 89.532 40.474 92.245 43.173 92.245 43.173 89.532 43.173 86.819" fill="#fff"/>
          <rect x="32.3794" y="84.10609" width="2.69843" height="2.71308" fill="#fff"/>
          <rect x="35.07783" y="89.53226" width="2.69823" height="2.71313" fill="#fff"/>
          <rect x="40.4743" y="105.81086" width="2.69823" height="2.71308" fill="#fff"/>
          <polygon points="40.474 127.516 40.474 130.229 43.173 130.229 45.871 130.229 45.871 127.516 43.173 127.516 43.173 124.803 40.474 124.803 40.474 127.516" fill="#fff"/>
          <rect x="40.4743" y="141.08115" width="2.69823" height="2.71308" fill="#fff"/>
          <rect x="37.77606" y="16.2786" width="2.69823" height="2.71308" fill="#fff"/>
          <rect x="37.77606" y="59.68819" width="2.69823" height="2.71308" fill="#fff"/>
          <rect x="37.77606" y="54.26197" width="2.69823" height="2.71313" fill="#fff"/>
          <polygon points="40.474 78.68 40.474 75.967 37.776 75.967 37.776 73.254 35.078 73.254 35.078 75.967 35.078 78.68 37.776 78.68 40.474 78.68" fill="#fff"/>
          <rect x="37.77606" y="84.10609" width="2.69823" height="2.71308" fill="#fff"/>
          <polygon points="37.776 119.376 35.078 119.376 32.379 119.376 32.379 122.089 35.078 122.089 37.776 122.089 40.474 122.089 40.474 119.376 40.474 116.663 37.776 116.663 37.776 119.376" fill="#fff"/>
          <rect x="37.77606" y="130.22877" width="2.69823" height="2.71308" fill="#fff"/>
          <rect x="37.77606" y="138.36807" width="2.69823" height="2.71308" fill="#fff"/>
          <rect x="24.2845" y="138.36807" width="2.69843" height="2.71308" fill="#fff"/>
          <rect x="35.07783" y="10.85239" width="2.69823" height="2.71313" fill="#fff"/>
          <rect x="35.07783" y="24.4179" width="2.69823" height="2.71308" fill="#fff"/>
          <polygon points="37.776 32.557 37.776 29.844 35.078 29.844 35.078 32.557 35.078 35.27 37.776 35.27 37.776 32.557" fill="#fff"/>
          <rect x="29.68116" y="51.54889" width="2.69823" height="2.71308" fill="#fff"/>
          <rect x="35.07783" y="56.97511" width="2.69823" height="2.71308" fill="#fff"/>
          <rect x="35.07783" y="81.39296" width="2.69823" height="2.71313" fill="#fff"/>
          <polygon points="37.776 103.098 40.474 103.098 40.474 100.385 37.776 100.385 35.078 100.385 35.078 103.098 37.776 103.098" fill="#fff"/>
          <polygon points="35.078 111.237 35.078 113.95 37.776 113.95 40.474 113.95 40.474 111.237 37.776 111.237 37.776 108.524 37.776 105.811 35.078 105.811 35.078 108.524 35.078 111.237" fill="#fff"/>
          <rect x="35.07783" y="124.80255" width="2.69823" height="2.71308" fill="#fff"/>
          <rect x="32.3794" y="8.1393" width="2.69843" height="2.71308" fill="#fff"/>
          <rect x="32.3794" y="18.99169" width="2.69843" height="2.71313" fill="#fff"/>
          <rect x="32.3794" y="35.27029" width="2.69843" height="2.71308" fill="#fff"/>
          <rect x="32.3794" y="40.6965" width="2.69843" height="2.71308" fill="#fff"/>
          <rect x="32.3794" y="54.26197" width="2.69843" height="2.71313" fill="#fff"/>
          <polygon points="35.078 65.114 35.078 62.401 32.379 62.401 29.681 62.401 29.681 65.114 32.379 65.114 35.078 65.114" fill="#fff"/>
          <rect x="32.3794" y="78.67988" width="2.69843" height="2.71308" fill="#fff"/>
          <polygon points="32.379 94.958 32.379 97.672 32.379 100.385 35.078 100.385 35.078 97.672 37.776 97.672 37.776 94.958 35.078 94.958 32.379 94.958" fill="#fff"/>
          <rect x="32.3794" y="103.09778" width="2.69843" height="2.71308" fill="#fff"/>
          <rect x="32.3794" y="113.95016" width="2.69843" height="2.71308" fill="#fff"/>
          <rect x="32.3794" y="130.22877" width="2.69843" height="2.71308" fill="#fff"/>
          <rect x="29.68116" y="27.13099" width="2.69823" height="2.71313" fill="#fff"/>
          <rect x="29.68116" y="32.5572" width="2.69823" height="2.71308" fill="#fff"/>
          <rect x="29.68116" y="56.97511" width="2.69823" height="2.71308" fill="#fff"/>
          <rect x="29.68116" y="67.82749" width="2.69823" height="2.71308" fill="#fff"/>
          <rect x="29.68116" y="73.25366" width="2.69823" height="2.71313" fill="#fff"/>
          <rect x="29.68116" y="81.39296" width="2.69823" height="2.71313" fill="#fff"/>
          <rect x="29.68116" y="89.53226" width="2.69823" height="2.71313" fill="#fff"/>
          <rect x="29.68116" y="105.81086" width="2.69823" height="2.71308" fill="#fff"/>
          <rect x="29.68116" y="111.23708" width="2.69823" height="2.71308" fill="#fff"/>
          <rect x="29.68116" y="124.80255" width="2.69823" height="2.71308" fill="#fff"/>
          <rect x="29.68116" y="132.94185" width="2.69823" height="2.71308" fill="#fff"/>
          <rect x="26.98293" y="18.99169" width="2.69823" height="2.71313" fill="#fff"/>
          <rect x="26.98293" y="46.12267" width="2.69823" height="2.71313" fill="#fff"/>
          <rect x="26.98293" y="54.26197" width="2.69823" height="2.71313" fill="#fff"/>
          <rect x="26.98293" y="78.67988" width="2.69823" height="2.71308" fill="#fff"/>
          <rect x="26.98293" y="86.81918" width="2.69823" height="2.71308" fill="#fff"/>
          <rect x="26.98293" y="92.24539" width="2.69823" height="2.71308" fill="#fff"/>
          <rect x="21.58627" y="92.24539" width="2.69823" height="2.71308" fill="#fff"/>
          <rect x="13.49156" y="90.88883" width="2.69823" height="2.71308" fill="#fff"/>
          <rect x="26.98293" y="103.09778" width="2.69823" height="2.71308" fill="#fff"/>
          <rect x="26.98293" y="108.52395" width="2.69823" height="2.71313" fill="#fff"/>
          <rect x="16.1898" y="108.52395" width="2.69823" height="2.71313" fill="#fff"/>
          <rect x="26.98293" y="122.08947" width="2.69823" height="2.71308" fill="#fff"/>
          <rect x="24.2845" y="24.4179" width="2.69843" height="2.71308" fill="#fff"/>
          <rect x="24.2845" y="48.83581" width="2.69843" height="2.71308" fill="#fff"/>
          <rect x="24.2845" y="70.54058" width="2.69843" height="2.71308" fill="#fff"/>
          <rect x="13.49156" y="70.54058" width="2.69823" height="2.71308" fill="#fff"/>
          <rect x="16.1898" y="75.96679" width="2.69823" height="2.71308" fill="#fff"/>
          <polygon points="26.983 97.672 26.983 94.958 24.285 94.958 24.285 97.672 24.285 100.385 26.983 100.385 26.983 97.672" fill="#fff"/>
          <rect x="24.2845" y="113.95016" width="2.69843" height="2.71308" fill="#fff"/>
          <rect x="21.58627" y="29.84412" width="2.69823" height="2.71308" fill="#fff"/>
          <rect x="21.58627" y="40.6965" width="2.69823" height="2.71308" fill="#fff"/>
          <rect x="21.58627" y="62.40127" width="2.69823" height="2.71313" fill="#fff"/>
          <rect x="13.49156" y="62.02259" width="2.69823" height="2.71308" fill="#fff"/>
          <rect x="21.58627" y="78.67988" width="2.69823" height="2.71308" fill="#fff"/>
          <rect x="16.1898" y="81.39296" width="2.69823" height="2.71313" fill="#fff"/>
          <rect x="21.58627" y="100.38465" width="2.69823" height="2.71313" fill="#fff"/>
          <rect x="18.88803" y="13.56552" width="2.69823" height="2.71308" fill="#fff"/>
          <rect x="18.88803" y="51.54889" width="2.69823" height="2.71308" fill="#fff"/>
          <rect x="18.88803" y="59.68819" width="2.69823" height="2.71308" fill="#fff"/>
          <rect x="18.88803" y="97.67156" width="2.69823" height="2.71308" fill="#fff"/>
          <rect x="18.88803" y="122.08947" width="2.69823" height="2.71308" fill="#fff"/>
          <rect x="16.1898" y="103.09778" width="2.69823" height="2.71308" fill="#fff"/>
          <rect y="111.23708" width="2.69823" height="2.71308" fill="#fff"/>
          <rect x="13.49156" y="29.84412" width="2.69823" height="2.71308" fill="#fff"/>
          <rect x="16.1898" y="45.93336" width="2.69823" height="2.71308" fill="#fff"/>
          <rect x="8.0949" y="84.10609" width="2.69823" height="2.71308" fill="#fff"/>
          <rect x="10.79313" y="51.54889" width="2.69843" height="2.71308" fill="#fff"/>
          <rect x="8.0949" y="97.67156" width="2.69823" height="2.71308" fill="#fff"/>
          <rect x="10.79313" y="105.81086" width="2.69843" height="2.71308" fill="#fff"/>
          <rect x="10.79313" y="132.94185" width="2.69843" height="2.71308" fill="#fff"/>
          <rect x="5.39666" y="37.98337" width="2.69823" height="2.71313" fill="#fff"/>
          <rect x="5.39666" y="75.96679" width="2.69823" height="2.71308" fill="#fff"/>
          <rect x="5.39666" y="122.08947" width="2.69823" height="2.71308" fill="#fff"/>
          <path d="M117.91224,0H99.83643V2.71313H94.44V5.42622H91.74153V2.71313h-8.0947V5.42622H89.0433V8.1393h2.69823v2.71309H89.0433v2.71313H86.34506V10.85239H83.64683V5.42622H80.94859V2.71313H78.25016V8.1393h2.69843v5.42622H78.25016V8.1393H75.55193v2.71309H72.85369v2.71313h2.69824V16.2786H72.85369v2.71309H70.15527V16.2786h2.69842V13.56552H64.7588v8.1393H62.06056V18.99169H59.36233V24.4179h2.69823v5.42622H59.36233V24.4179H56.6639v8.1393h2.69843v2.71309H56.6639v2.71308H51.26743V32.5572H48.56919v2.71309H45.87077v2.71308h2.69842V40.6965H45.87077v5.42617h2.69842V43.40959h2.69824v2.71308H48.56919v2.71314H45.87077v2.71308h2.69842V54.262H45.87077V51.54889H43.17253V62.40127h2.69824V59.68819h5.39666v2.71308H45.87077v2.71314h2.69842v2.71308h5.39647v2.71309H48.56919V67.82749H45.87077V65.11441H43.17253V62.40127H40.4743v2.71314H37.77606v2.71308H35.07783v2.71309H40.4743V67.82749h2.69823v2.71309H40.4743v5.42621h2.69823V73.25366h2.69824v2.71313h2.69842V73.25366h2.69824v2.71313H48.56919v2.71309H40.4743v5.42621h2.69823V81.393h2.69824v2.71313H43.17253v2.71309h2.69824v5.42621H43.17253v2.71309H40.4743v2.71308h2.69823v8.1393h2.69824v-2.71308h2.69842v2.71308H45.87077V108.524h5.39666v-2.71309H56.6639v-2.71308h2.69843v2.71308H56.6639v5.42622H53.96566V108.524H51.26743v2.71313H48.56919v2.71308H45.87077v8.13931H43.17253v2.71308h5.39666v-2.71308h2.69824v-2.71309H48.56919v-2.71313h5.39647v2.71313H56.6639v5.42617H53.96566v-2.71308H51.26743v2.71308H48.56919v8.1393h2.69824v-5.42622h8.0949v2.71314H53.96566v2.71308h5.39667v2.71308h5.369v-.02176l.02748.02176v5.42622H67.457v2.71309h2.69824v-2.71309h2.69842v-2.71308h2.69824v2.71308H72.85369v2.71309h5.39647v5.42621h2.69843v-2.71308h2.69824v2.71308H89.0433v-2.71308H86.34506v-2.71313H83.64683v-2.71309h2.69823v-2.71308h5.39647v2.71308H86.34506v2.71309H89.0433v2.71313h2.69823v2.71308h8.0949v2.71309h18.07581A75.96677,75.96677,0,0,0,117.91224,0ZM80.94859,18.99169h2.69824v2.71313H80.94859Zm-5.39666,0h2.69823v2.71313H75.55193Zm0,8.1393v2.71313H72.85369V32.5572H70.15527V29.84412h2.69842V27.131ZM64.7588,24.4179H67.457V21.70482h5.39666V24.4179H67.457V27.131H64.7588Zm0,5.42622H67.457V32.5572H64.7588Zm-5.39647,8.13925h2.69823V40.6965H64.7588v2.71309H62.06056V40.6965H59.36233ZM64.7588,108.524v2.71313H62.06056V108.524ZM53.96566,43.40959h5.39667v2.71308H53.96566ZM51.26743,78.67988h2.69823V81.393H51.26743Zm-2.69824,5.42621h2.69824v2.71309H48.56919Zm8.09471,16.27856H53.96566V97.67156H56.6639Zm0-8.13926H53.96566v2.71309H51.26743v2.71308H48.56919v2.71309H45.87077V97.67156h2.69842V94.95848h2.69824V92.24539H48.56919V89.53226h2.69824v2.71313h2.69823V89.53226H56.6639Zm0-29.84412H53.96566V59.68819H56.6639Zm0-10.85238v5.42622H53.96566V51.54889H51.26743V48.83581h2.69823v2.71308H56.6639V48.83581h2.69843v2.71308Zm0,65.11436v-2.71309h2.69843v2.71309h2.69823v2.71313H59.36233v-2.71313Zm13.49137,5.42622v2.71308H64.7588v2.71308H67.457v2.71314H64.7588v2.73209l-.02748-.019H62.06056v-2.71308h2.67076v-2.71314H62.06056v-2.71308H59.36233v-2.71308h2.69823v2.71308H64.7588v-2.71308H67.457v-2.71309h2.69824Zm5.39666,10.85238v2.71308H72.85369v-5.42616h2.69824Zm0-5.42622H72.85369v-2.71308h2.69824Zm5.39666,10.85244H78.25016v-2.71314h2.69843Zm0-5.42622H78.25016v-2.71308h2.69843Zm5.39647,0H83.64683v-2.71308h2.69823Zm31.56719-1.1674-4.94936-.15566h.98549a55.44852,55.44852,0,0,1-21.22781-5.85808l-.14914-.07629A55.88614,55.88614,0,0,1,63.44094,88.09177l-.09441-.40877a55.8829,55.8829,0,0,1,0-23.43241h.09441v-.40888a55.51,55.51,0,0,1,8.73923-19.84327l.17859-.25128a56.08757,56.08757,0,0,1,6.45035-7.56972l.2423-.23536a55.93772,55.93772,0,0,1,13.52-9.693l.14914-.07629a55.44834,55.44834,0,0,1,21.22781-5.85808h-.98549l4.94936-.15567a55.80769,55.80769,0,0,1,0,111.61537Z" fill="#fff"/>
        </g>
      </g>
    </g>
  </g>
</svg>
